<?xml version="1.0" encoding="UTF-8" standalone="no"?>
<!-- Created with Inkscape (http://www.inkscape.org/) -->

<svg
   xmlns:dc="http://purl.org/dc/elements/1.1/"
   xmlns:cc="http://creativecommons.org/ns#"
   xmlns:rdf="http://www.w3.org/1999/02/22-rdf-syntax-ns#"
   xmlns:svg="http://www.w3.org/2000/svg"
   xmlns="http://www.w3.org/2000/svg"
   xmlns:sodipodi="http://sodipodi.sourceforge.net/DTD/sodipodi-0.dtd"
   xmlns:inkscape="http://www.inkscape.org/namespaces/inkscape"
   width="142.51985"
   height="91.234291"
   id="svg2"
   version="1.1"
   inkscape:version="0.48.4 r9939"
   sodipodi:docname="New document 1">
  <defs
     id="defs4" />
  <sodipodi:namedview
     id="base"
     pagecolor="#ffffff"
     bordercolor="#666666"
     borderopacity="1.0"
     inkscape:pageopacity="0.0"
     inkscape:pageshadow="2"
     inkscape:zoom="0.35"
     inkscape:cx="71.259918"
     inkscape:cy="45.617163"
     inkscape:document-units="px"
     inkscape:current-layer="layer1"
     showgrid="false"
     fit-margin-top="0"
     fit-margin-left="0"
     fit-margin-right="0"
     fit-margin-bottom="0"
     inkscape:window-width="463"
     inkscape:window-height="423"
     inkscape:window-x="50"
     inkscape:window-y="50"
     inkscape:window-maximized="0" />
  <metadata
     id="metadata7">
    <rdf:RDF>
      <cc:Work
         rdf:about="">
        <dc:format>image/svg+xml</dc:format>
        <dc:type
           rdf:resource="http://purl.org/dc/dcmitype/StillImage" />
        <dc:title></dc:title>
      </cc:Work>
    </rdf:RDF>
  </metadata>
  <g
     inkscape:label="Layer 1"
     inkscape:groupmode="layer"
     id="layer1"
     transform="translate(-303.74008,-486.74503)">
    <rect
       ry="5.398479"
       y="486.74503"
       x="303.74008"
       height="91.234291"
       width="142.51985"
       id="rect3818-4-1"
       style="fill:#de6143;fill-opacity:1;stroke:none"
       inkscape:export-filename="C:\Users\jonescd\Desktop\BoilerMake\icon.png"
       inkscape:export-xdpi="90"
       inkscape:export-ydpi="90" />
    <path
       inkscape:connector-curvature="0"
       style="fill:#5a5e6a;fill-opacity:1;stroke:none"
       d="m 317.8101,493.75229 c -1.79438,0 -3.25974,1.46513 -3.25974,3.2596 l 0,48.59757 c 0,1.79443 1.46536,3.25961 3.25974,3.25961 l 114.38221,0 c 1.79439,0 3.2593,-1.46518 3.2593,-3.25961 l 0,-48.59757 c 0,-1.79447 -1.46491,-3.2596 -3.2593,-3.2596 l -114.38221,0 z"
       id="rect3820-2-9"
       inkscape:export-filename="C:\Users\jonescd\Desktop\BoilerMake\icon.png"
       inkscape:export-xdpi="90"
       inkscape:export-ydpi="90" />
    <rect
       ry="14.307469"
       y="514.62128"
       x="331.94385"
       height="28.614939"
       width="86.114777"
       id="rect3976-7-1-0"
       style="fill:#a6acb5;fill-opacity:1;stroke:none"
       inkscape:export-filename="C:\Users\jonescd\Desktop\BoilerMake\icon.png"
       inkscape:export-xdpi="90"
       inkscape:export-ydpi="90" />
    <path
       inkscape:connector-curvature="0"
       style="fill:#222328;fill-opacity:1;stroke:none"
       d="m 345.26394,521.16252 c -1.50761,-0.0359 -3.08129,0.45844 -4.44506,1.33347 -3.63642,2.3328 -4.70352,7.17916 -2.37064,10.8159 2.33333,3.63678 7.17934,4.70343 10.81621,2.37064 3.63686,-2.33284 4.70307,-7.17916 2.37064,-10.81594 -1.45816,-2.27292 -3.85892,-3.64087 -6.37115,-3.70407 z m 59.70963,0 c -0.52007,-0.004 -0.95159,0.0404 -1.48154,0.14788 -1.55256,0.30341 -2.94734,1.19449 -4.00051,2.22244 -1.8227,1.77951 -2.74732,4.27579 -2.2223,6.96368 0.31015,1.59023 1.15565,2.93696 2.2223,4.00042 1.77821,1.77241 4.31336,2.74008 6.96403,2.22244 1.58987,-0.3106 2.93386,-1.15516 4.00051,-2.22244 0.71021,-0.71151 1.23567,-1.4458 1.62943,-2.37064 0,-0.0359 0,-0.10788 0,-0.14789 0.55197,-1.35747 0.89404,-2.90036 0.59288,-4.44488 -0.31015,-1.59022 -1.15341,-2.9374 -2.22231,-4.00042 -1.42625,-1.4173 -3.40178,-2.35248 -5.48249,-2.37059 z"
       id="path4004-1-7-6-2-6"
       inkscape:export-filename="C:\Users\jonescd\Desktop\BoilerMake\icon.png"
       inkscape:export-xdpi="90"
       inkscape:export-ydpi="90" />
    <path
       sodipodi:nodetypes="sccssss"
       inkscape:connector-curvature="0"
       id="path3822-8-8"
       d="m 329.79006,556.7177 -6.64265,21.24055 103.73187,0 -6.94201,-21.79387 c -0.92237,-2.89637 -1.18532,-2.67477 -4.0104,-2.67477 l -81.73805,0 c -3.25615,0 -3.63912,0.80032 -4.39876,3.22809 z"
       style="fill:#c05339;fill-opacity:1;stroke:none"
       inkscape:export-filename="C:\Users\jonescd\Desktop\BoilerMake\icon.png"
       inkscape:export-xdpi="90"
       inkscape:export-ydpi="90" />
    <path
       d="m -1515.8929,239.32646 c 0,1.18347 -0.9594,2.14286 -2.1429,2.14286 -1.1834,0 -2.1428,-0.95939 -2.1428,-2.14286 0,-1.18347 0.9594,-2.14286 2.1428,-2.14286 1.1835,0 2.1429,0.95939 2.1429,2.14286 z"
       sodipodi:ry="2.1428571"
       sodipodi:rx="2.1428571"
       sodipodi:cy="239.32646"
       sodipodi:cx="-1518.0358"
       id="path3824-5-6"
       style="fill:#222328;fill-opacity:1;stroke:none"
       sodipodi:type="arc"
       transform="matrix(1.5115741,0,0,1.5115741,2647.7595,202.99356)"
       inkscape:export-filename="C:\Users\jonescd\Desktop\BoilerMake\icon.png"
       inkscape:export-xdpi="90"
       inkscape:export-ydpi="90" />
    <path
       d="m -1515.8929,239.32646 c 0,1.18347 -0.9594,2.14286 -2.1429,2.14286 -1.1834,0 -2.1428,-0.95939 -2.1428,-2.14286 0,-1.18347 0.9594,-2.14286 2.1428,-2.14286 1.1835,0 2.1429,0.95939 2.1429,2.14286 z"
       sodipodi:ry="2.1428571"
       sodipodi:rx="2.1428571"
       sodipodi:cy="239.32646"
       sodipodi:cx="-1518.0358"
       id="path3824-1-7-0"
       style="fill:#0e1815;fill-opacity:1;stroke:none"
       sodipodi:type="arc"
       transform="matrix(1.5115741,0,0,1.5115741,2692.0271,202.99356)"
       inkscape:export-filename="C:\Users\jonescd\Desktop\BoilerMake\icon.png"
       inkscape:export-xdpi="90"
       inkscape:export-ydpi="90" />
    <path
       d="m -1515.8929,239.32646 c 0,1.18347 -0.9594,2.14286 -2.1429,2.14286 -1.1834,0 -2.1428,-0.95939 -2.1428,-2.14286 0,-1.18347 0.9594,-2.14286 2.1428,-2.14286 1.1835,0 2.1429,0.95939 2.1429,2.14286 z"
       sodipodi:ry="2.1428571"
       sodipodi:rx="2.1428571"
       sodipodi:cy="239.32646"
       sodipodi:cx="-1518.0358"
       id="path3824-7-6-2"
       style="fill:#222328;fill-opacity:1;stroke:none"
       sodipodi:type="arc"
       transform="matrix(1.1336806,0,0,1.1336806,2060.3378,298.02204)"
       inkscape:export-filename="C:\Users\jonescd\Desktop\BoilerMake\icon.png"
       inkscape:export-xdpi="90"
       inkscape:export-ydpi="90" />
    <path
       d="m -1515.8929,239.32646 c 0,1.18347 -0.9594,2.14286 -2.1429,2.14286 -1.1834,0 -2.1428,-0.95939 -2.1428,-2.14286 0,-1.18347 0.9594,-2.14286 2.1428,-2.14286 1.1835,0 2.1429,0.95939 2.1429,2.14286 z"
       sodipodi:ry="2.1428571"
       sodipodi:rx="2.1428571"
       sodipodi:cy="239.32646"
       sodipodi:cx="-1518.0358"
       id="path3824-7-4-1-4"
       style="fill:#0e1815;fill-opacity:1;stroke:none"
       sodipodi:type="arc"
       transform="matrix(1.1336806,0,0,1.1336806,2132.4072,298.02204)"
       inkscape:export-filename="C:\Users\jonescd\Desktop\BoilerMake\icon.png"
       inkscape:export-xdpi="90"
       inkscape:export-ydpi="90" />
    <rect
       ry="0"
       y="521.2027"
       x="358.40106"
       height="15.655588"
       width="33.200645"
       id="rect3978-8-8"
       style="fill:#222328;fill-opacity:1;stroke:none"
       inkscape:export-filename="C:\Users\jonescd\Desktop\BoilerMake\icon.png"
       inkscape:export-xdpi="90"
       inkscape:export-ydpi="90" />
    <path
       id="rect3820-7-9-6"
       d="m 317.76246,493.78245 c -1.79439,0 -3.2121,1.41762 -3.2121,3.21209 l 0,11.80919 120.92597,0 0,-11.80919 c 0,-1.79447 -1.46491,-3.21209 -3.2593,-3.21209 l -114.45457,0 z"
       style="fill:#a6acb5;fill-opacity:1;stroke:none"
       inkscape:connector-curvature="0"
       inkscape:export-filename="C:\Users\jonescd\Desktop\BoilerMake\icon.png"
       inkscape:export-xdpi="90"
       inkscape:export-ydpi="90" />
  </g>
</svg>
