<?xml version="1.0" encoding="UTF-8" standalone="no"?>
<!-- Created with Inkscape (http://www.inkscape.org/) -->

<svg
   xmlns:dc="http://purl.org/dc/elements/1.1/"
   xmlns:cc="http://creativecommons.org/ns#"
   xmlns:rdf="http://www.w3.org/1999/02/22-rdf-syntax-ns#"
   xmlns:svg="http://www.w3.org/2000/svg"
   xmlns="http://www.w3.org/2000/svg"
   xmlns:sodipodi="http://sodipodi.sourceforge.net/DTD/sodipodi-0.dtd"
   xmlns:inkscape="http://www.inkscape.org/namespaces/inkscape"
   width="198.38699"
   height="198.3866"
   id="svg4383"
   version="1.1"
   inkscape:version="0.48.4 r9939"
   sodipodi:docname="playButton.svg">
  <defs
     id="defs4385" />
  <sodipodi:namedview
     id="base"
     pagecolor="#ffffff"
     bordercolor="#666666"
     borderopacity="1.0"
     inkscape:pageopacity="0.0"
     inkscape:pageshadow="2"
     inkscape:zoom="0.35"
     inkscape:cx="99.193"
     inkscape:cy="99.193286"
     inkscape:document-units="px"
     inkscape:current-layer="g13194"
     showgrid="false"
     fit-margin-top="0"
     fit-margin-left="0"
     fit-margin-right="0"
     fit-margin-bottom="0"
     inkscape:window-width="708"
     inkscape:window-height="423"
     inkscape:window-x="862"
     inkscape:window-y="127"
     inkscape:window-maximized="0" />
  <metadata
     id="metadata4388">
    <rdf:RDF>
      <cc:Work
         rdf:about="">
        <dc:format>image/svg+xml</dc:format>
        <dc:type
           rdf:resource="http://purl.org/dc/dcmitype/StillImage" />
        <dc:title />
      </cc:Work>
    </rdf:RDF>
  </metadata>
  <g
     inkscape:label="Layer 1"
     inkscape:groupmode="layer"
     id="layer1"
     transform="translate(-413.787,-584.2021)">
    <g
       id="g13194"
       transform="translate(-33178.8,4534.181)">
      <path
         transform="matrix(1.2245965,0,0,1.2245965,-7214.3745,1041.711)"
         d="m 33457.031,-3995.2942 c 0,28.4772 -23.085,51.5625 -51.562,51.5625 -28.477,0 -51.563,-23.0853 -51.563,-51.5625 0,-28.4772 23.086,-51.5625 51.563,-51.5625 28.477,0 51.562,23.0853 51.562,51.5625 z"
         sodipodi:ry="51.5625"
         sodipodi:rx="51.5625"
         sodipodi:cy="-3995.2942"
         sodipodi:cx="33405.469"
         id="path13051"
         style="fill:#e5e8ef;fill-opacity:1;stroke:none"
         sodipodi:type="arc" />
      <path
         style="fill:#de6143;fill-opacity:1;stroke:none"
         d="m 33691.78,-3949.9789 c -54.779,0 -99.193,44.4131 -99.193,99.1936 0,54.7803 44.414,99.193 99.193,99.193 54.782,7e-4 99.194,-44.4127 99.194,-99.193 0,-54.7805 -44.412,-99.1936 -99.194,-99.1936 z m -22.945,53.2035 73.342,45.9901 -73.342,45.9891 0,-91.9792 z"
         id="path16335-1-7-5-1-0-6"
         inkscape:connector-curvature="0" />
    </g>
  </g>
</svg>
