<?xml version="1.0" encoding="UTF-8" standalone="no"?>
<!-- Created with Inkscape (http://www.inkscape.org/) -->

<svg
   xmlns:dc="http://purl.org/dc/elements/1.1/"
   xmlns:cc="http://creativecommons.org/ns#"
   xmlns:rdf="http://www.w3.org/1999/02/22-rdf-syntax-ns#"
   xmlns:svg="http://www.w3.org/2000/svg"
   xmlns="http://www.w3.org/2000/svg"
   xmlns:sodipodi="http://sodipodi.sourceforge.net/DTD/sodipodi-0.dtd"
   xmlns:inkscape="http://www.inkscape.org/namespaces/inkscape"
   width="179.2813"
   height="179.30238"
   id="svg4383"
   version="1.1"
   inkscape:version="0.48.4 r9939"
   sodipodi:docname="note.svg">
  <defs
     id="defs4385" />
  <sodipodi:namedview
     id="base"
     pagecolor="#ffffff"
     bordercolor="#666666"
     borderopacity="1.0"
     inkscape:pageopacity="0.0"
     inkscape:pageshadow="2"
     inkscape:zoom="0.35"
     inkscape:cx="81.069232"
     inkscape:cy="89.651186"
     inkscape:document-units="px"
     inkscape:current-layer="layer1"
     showgrid="false"
     fit-margin-top="0"
     fit-margin-left="0"
     fit-margin-right="0"
     fit-margin-bottom="0"
     inkscape:window-width="1920"
     inkscape:window-height="1018"
     inkscape:window-x="-8"
     inkscape:window-y="-8"
     inkscape:window-maximized="1" />
  <metadata
     id="metadata4388">
    <rdf:RDF>
      <cc:Work
         rdf:about="">
        <dc:format>image/svg+xml</dc:format>
        <dc:type
           rdf:resource="http://purl.org/dc/dcmitype/StillImage" />
        <dc:title></dc:title>
      </cc:Work>
    </rdf:RDF>
  </metadata>
  <g
     inkscape:label="Layer 1"
     inkscape:groupmode="layer"
     id="layer1"
     transform="translate(-293.93077,-442.71098)">
    <g
       id="g6941-7-9"
       transform="matrix(-0.44455645,0,0,-0.44455645,7521.3716,-955.85307)"
       style="fill:#e5e8ef;fill-opacity:1">
      <path
         id="path6883-69-3"
         d="m 16006.469,-3457.2188 -0.5,58.2813 c -0.432,50.3522 -0.704,58.3999 -2,59.2187 -0.852,0.5382 -13.681,0.9588 -29.688,0.9688 -15.505,0.01 -28.426,0.401 -28.719,0.875 -0.292,0.474 3.215,4.2802 7.782,8.4375 4.567,4.1573 10.794,9.9438 13.844,12.875 7.038,6.7639 11.675,11.1499 42.281,39.875 13.748,12.9029 29.574,27.8562 35.156,33.2187 5.582,5.3626 10.662,9.75 11.281,9.75 0.619,0 5.726,-4.3874 11.375,-9.75 14.95,-14.1903 58.06,-54.7557 65.625,-61.75 3.57,-3.3 8.336,-7.8 10.563,-10 2.227,-2.2 8.409,-8.0194 13.75,-12.9062 5.341,-4.8867 9.481,-9.2742 9.187,-9.75 -0.294,-0.4757 -13.245,-0.865 -28.75,-0.875 -16.007,-0.01 -28.835,-0.4306 -29.687,-0.9688 -1.296,-0.8188 -1.568,-8.8665 -2,-59.2187 l -0.5,-58.2813 -49.5,0 -49.5,0 z"
         style="fill:#e5e8ef;fill-opacity:1"
         inkscape:connector-curvature="0" />
      <path
         inkscape:connector-curvature="0"
         id="path6883-6-3-0"
         d="m 16057.116,-3549.305 c -5.292,0.01 -10.576,0.2675 -15.941,0.759 -21.681,1.9868 -31.216,3.9015 -49.339,9.9154 -55.739,18.4957 -101.522,61.9552 -123.183,116.921 -13.075,33.1735 -17.278,68.5374 -12.193,102.4748 5.104,34.0685 17.917,64.9982 38.167,92.0852 29.716,39.7496 72.903,67.0491 121.879,77.0459 8.16,1.6656 11.311,2.1053 22.392,3.1549 13.639,1.2917 19.419,1.2936 33.02,0.024 12.88,-1.2024 18.135,-1.9562 26.188,-3.7241 48.406,-10.6274 90.217,-37.6283 119.933,-77.4967 14.014,-18.8007 26.007,-43.069 31.526,-63.7621 0.334,-1.2525 1.118,-4.1559 1.731,-6.4521 5.043,-18.8755 7.364,-42.6947 5.931,-60.9157 -1.455,-18.4835 -2.933,-26.8904 -7.995,-45.5444 -3.505,-12.9158 -11.539,-31.3897 -19.38,-44.5955 -30.081,-50.6617 -79.498,-85.4769 -136.68,-96.3074 -12.724,-2.4098 -24.413,-3.5965 -36.056,-3.5818 z m -1.139,41.1797 c 19.803,0 39.607,3.4793 57.69,10.461 46.369,17.9021 82.6,57.1968 96.307,104.4674 5.21,17.9662 5.796,22.6048 5.788,45.4969 0,18.8177 -0.185,21.6972 -1.755,29.2243 -3.554,17.0291 -7.682,29.1887 -14.636,43.0537 -21.025,41.9198 -61.793,74.0413 -106.579,83.9725 -12.292,2.7258 -15.043,3.1257 -26.567,3.8902 -6.263,0.4155 -11.899,0.7174 -12.525,0.6642 -0.626,-0.053 -5.067,-0.3776 -9.868,-0.7116 -24.732,-1.7204 -52.968,-10.9509 -72.966,-23.8634 -26.581,-17.1629 -46.203,-39.1476 -59.587,-66.7747 -5.181,-10.6945 -8.242,-19.2643 -11.173,-31.122 -3.526,-14.2656 -3.905,-17.9908 -3.89,-39.0923 0.02,-22.0406 0.674,-27.1037 5.788,-44.7378 13.7,-47.2438 49.941,-86.5755 96.284,-104.4674 18.083,-6.9817 37.886,-10.461 57.689,-10.461 z"
         style="fill:#e5e8ef;fill-opacity:1" />
    </g>
  </g>
</svg>
